<svg xmlns="http://www.w3.org/2000/svg" xmlns:xlink="http://www.w3.org/1999/xlink" version="1.1" viewBox="240 216 792 432" width="792px" height="432px"><defs><style>@font-face{
    font-family:"DIN Next";
    font-weight: 400;
    src:url("https://whimsical.com/fonts/139e8e25-0eea-4cb4-a5d4-79048803e73d.eot?#iefix");
    src:url("https://whimsical.com/fonts/139e8e25-0eea-4cb4-a5d4-79048803e73d.eot?#iefix") format("eot"),url("https://whimsical.com/fonts/094b15e3-94bd-435b-a595-d40edfde661a.woff2") format("woff2"),url("https://whimsical.com/fonts/7e5fbe11-4858-4bd1-9ec6-a1d9f9d227aa.woff") format("woff"),url("https://whimsical.com/fonts/0f11eff9-9f05-46f5-9703-027c510065d7.ttf") format("truetype"),url("https://whimsical.com/fonts/48b61978-3f30-4274-823c-5cdcd1876918.svg#48b61978-3f30-4274-823c-5cdcd1876918") format("svg");
}
@font-face{
    font-family:"DIN Next";
    font-weight: 400;
    font-style: italic;
    src:url("https://whimsical.com/fonts/df24d5e8-5087-42fd-99b1-b16042d666c8.eot?#iefix");
    src:url("https://whimsical.com/fonts/df24d5e8-5087-42fd-99b1-b16042d666c8.eot?#iefix") format("eot"),url("https://whimsical.com/fonts/46251881-ffe9-4bfb-99c7-d6ce3bebaf3e.woff2") format("woff2"),url("https://whimsical.com/fonts/790ebbf2-62c5-4a32-946f-99d405f9243e.woff") format("woff"),url("https://whimsical.com/fonts/d28199e6-0f4a-42df-97f4-606701c6f75a.ttf") format("truetype"),url("https://whimsical.com/fonts/37a462c0-d86e-492c-b9ab-35e6bd417f6c.svg#37a462c0-d86e-492c-b9ab-35e6bd417f6c") format("svg");
}
@font-face{
    font-weight: 500;
    font-family:"DIN Next";
    src:url("https://whimsical.com/fonts/c5b058fc-55ce-4e06-a175-5c7d9a7e90f4.eot?#iefix");
    src:url("https://whimsical.com/fonts/c5b058fc-55ce-4e06-a175-5c7d9a7e90f4.eot?#iefix") format("eot"),url("https://whimsical.com/fonts/7b29ae40-30ff-4f99-a2b9-cde88669fa2f.woff2") format("woff2"),url("https://whimsical.com/fonts/bf73077c-e354-4562-a085-f4703eb1d653.woff") format("woff"),url("https://whimsical.com/fonts/0ffa6947-5317-4d07-b525-14d08a028821.ttf") format("truetype"),url("https://whimsical.com/fonts/9e423e45-5450-4991-a157-dbe6cf61eb4e.svg#9e423e45-5450-4991-a157-dbe6cf61eb4e") format("svg");
}
@font-face{
    font-family:"DIN Next";
    font-weight: 500;
    font-style: italic;
    src:url("https://whimsical.com/fonts/9897c008-fd65-48a4-afc7-36de2fea97b9.eot?#iefix");
    src:url("https://whimsical.com/fonts/9897c008-fd65-48a4-afc7-36de2fea97b9.eot?#iefix") format("eot"),url("https://whimsical.com/fonts/c7717981-647d-4b76-8817-33062e42d11f.woff2") format("woff2"),url("https://whimsical.com/fonts/b852cd4c-1255-40b1-a2be-73a9105b0155.woff") format("woff"),url("https://whimsical.com/fonts/821b00ad-e741-4e2d-af1a-85594367c8a2.ttf") format("truetype"),url("https://whimsical.com/fonts/d3e3b689-a6b0-45f2-b279-f5e194f87409.svg#d3e3b689-a6b0-45f2-b279-f5e194f87409") format("svg");
}
@font-face{
    font-weight: 700;
    font-family:"DIN Next";
    src:url("https://whimsical.com/fonts/81cd3b08-fd39-4ae3-8d05-9d24709eba84.eot?#iefix");
    src:url("https://whimsical.com/fonts/81cd3b08-fd39-4ae3-8d05-9d24709eba84.eot?#iefix") format("eot"),url("https://whimsical.com/fonts/31704504-4671-47a6-a61e-397f07410d91.woff2") format("woff2"),url("https://whimsical.com/fonts/b8a280da-481f-44a0-8d9c-1bc64bd7227c.woff") format("woff"),url("https://whimsical.com/fonts/276d122a-0fab-447b-9fc0-5d7fb0eafce2.ttf") format("truetype"),url("https://whimsical.com/fonts/8fb8273a-8213-4928-808b-b5bfaf3fd7e9.svg#8fb8273a-8213-4928-808b-b5bfaf3fd7e9") format("svg");
}
@font-face{
    font-family:"DIN Next";
    font-weight: 700;
    font-style: italic;
    src:url("https://whimsical.com/fonts/00cc6df3-ed32-4004-8dd8-1c576600a408.eot?#iefix");
    src:url("https://whimsical.com/fonts/00cc6df3-ed32-4004-8dd8-1c576600a408.eot?#iefix") format("eot"),url("https://whimsical.com/fonts/4132c4c8-680c-4d6d-9251-a2da38503bbd.woff2") format("woff2"),url("https://whimsical.com/fonts/366401fe-6df4-47be-8f55-8a411cff0dd2.woff") format("woff"),url("https://whimsical.com/fonts/dbe4f7ba-fc16-44a6-a577-571620e9edaf.ttf") format("truetype"),url("https://whimsical.com/fonts/f874edca-ee87-4ccf-8b1d-921fbc3c1c36.svg#f874edca-ee87-4ccf-8b1d-921fbc3c1c36") format("svg");
}

@font-face {
    font-family: 'PFDINMonoPro';
    src:url('https://whimsical.com/fonts/PFDINMonoPro-Regular.woff') format('woff');
    font-weight: 400;
}
@font-face {
    font-family: 'PFDINMonoPro';
    src:url('https://whimsical.com/fonts/PFDINMonoPro-Italic.woff') format('woff');
    font-style: italic;
    font-weight: 400;
}
@font-face {
    font-family: 'PFDINMonoPro';
    src:url('https://whimsical.com/fonts/PFDINMonoPro-Bold.woff') format('woff');
    font-weight: 700;
}
@font-face {
    font-family: 'PFDINMonoPro';
    src:url('https://whimsical.com/fonts/PFDINMonoPro-BoldItalic.woff') format('woff');
    font-style: italic;
    font-weight: 700;
}
* {-webkit-font-smoothing: auto; -moz-osx-font-smoothing: auto;}@media print { svg { width: 100%; height: 100%; } }</style><g><filter id="white-fill-shadow" y="-50%" height="200%"><feDropShadow dx="0" dy="2" stdDeviation="6" flood-opacity="0.03" flood-color="#000000"></feDropShadow></filter><filter id="light-gray-fill-shadow" y="-50%" height="200%"><feDropShadow dx="0" dy="2" stdDeviation="6" flood-opacity="0.09" flood-color="#000000"></feDropShadow></filter><filter id="yellow-fill-shadow" y="-50%" height="200%"><feDropShadow dx="0" dy="2" stdDeviation="6" flood-opacity="0.12" flood-color="#000000"></feDropShadow></filter><filter id="fill-shadow" y="-50%" height="200%"><feDropShadow dx="0" dy="2" stdDeviation="6" flood-opacity="0.16" flood-color="#000000"></feDropShadow></filter><filter id="frame-shadow" y="-50%" height="200%"><feDropShadow dx="0" dy="3" stdDeviation="8" flood-opacity="0.06" flood-color="#000000"></feDropShadow></filter><filter id="button-shadow" y="-50%" height="200%"><feDropShadow dx="0" dy="2" stdDeviation="6" flood-opacity="0.03" flood-color="#000000"></feDropShadow></filter><filter id="button-hover-shadow" y="-50%" height="200%"><feDropShadow dx="0" dy="2" stdDeviation="6" flood-opacity="0.08" flood-color="#000000"></feDropShadow></filter><filter id="badge-shadow" y="-50%" height="200%"><feDropShadow dx="0" dy="2" stdDeviation="6" flood-opacity="0.08" flood-color="#000000"></feDropShadow></filter></g></defs><g><rect x="240" y="216" width="792" height="432" rx="3" ry="3" fill="#FFFFFF" filter="url(#white-fill-shadow)"></rect><g><rect x="240" y="216" width="792" height="432" rx="3" ry="3" fill="#FFFFFF"></rect></g><g><g><g class="content"><g><g><g><g><g></g><text fill="#293845" hover-props="{}"><tspan x="824" y="360.5" font-family="DIN Next, system-ui, sans-serif" font-size="18" font-style="normal" font-weight="normal">AccountMeta</tspan></text></g></g></g></g></g></g><g><g class="content"><g><g><g><g><g></g><text fill="#293845" hover-props="{}"><tspan x="824" y="504.5" font-family="DIN Next, system-ui, sans-serif" font-size="18" font-style="normal" font-weight="normal">AccountMeta</tspan></text></g></g></g></g></g></g><g><g><rect x="276" y="378" width="221" height="222" rx="3" ry="3" fill="#d1efec"></rect><rect y="378" rx="3" stroke="#1AAE9F" fill="none" stroke-linejoin="round" width="221" stroke-linecap="round" stroke-width="2" x="276" ry="3" height="222"></rect><g class="content"><g><g><g><g><g></g><text fill="#293845" hover-props="{}"><tspan x="340.6806640625" y="408.5" font-family="DIN Next, system-ui, sans-serif" font-size="18" font-style="normal" font-weight="normal">Transaction</tspan></text></g></g></g></g></g></g><g><g><g><rect x="288" y="425" width="197" height="36" rx="3" ry="3" fill="#ffffff"></rect><rect y="425" rx="3" stroke="#C3CFD9" fill="none" stroke-linejoin="round" width="197" stroke-linecap="round" stroke-width="2" x="288" ry="3" height="36"></rect><g class="content"><g><g><g><g><g></g><text fill="#293845" hover-props="{}"><tspan x="352.23681640625" y="449.5" font-family="DIN Next, system-ui, sans-serif" font-size="18" font-style="normal" font-weight="normal">Message</tspan></text></g></g></g></g></g></g></g><g><g><rect x="288" y="546" width="197" height="36" rx="3" ry="3" fill="#ffffff"></rect><rect y="546" rx="3" stroke="#C3CFD9" fill="none" stroke-linejoin="round" width="197" stroke-linecap="round" stroke-width="2" x="288" ry="3" height="36"></rect><g class="content"><g><g><g><g><g></g><text fill="#293845" hover-props="{}"><tspan x="356.65576171875" y="570.5" font-family="DIN Next, system-ui, sans-serif" font-size="18" font-style="normal" font-weight="normal">Signers</tspan></text></g></g></g></g></g></g></g><g><g><rect x="300" y="461" width="185" height="36" rx="3" ry="3" fill="#F2F5F7"></rect><rect y="461" rx="3" stroke="#C3CFD9" fill="none" stroke-linejoin="round" width="185" stroke-linecap="round" stroke-width="2" x="300" ry="3" height="36"></rect><g class="content"><g><g><g><g><g></g><text fill="#293845" hover-props="{}"><tspan x="346.22119140625" y="485.5" font-family="DIN Next, system-ui, sans-serif" font-size="18" font-style="normal" font-weight="normal">Instructions</tspan></text></g></g></g></g></g></g></g><g><g><rect x="300" y="497" width="185" height="36" rx="3" ry="3" fill="#F2F5F7"></rect><rect y="497" rx="3" stroke="#C3CFD9" fill="none" stroke-linejoin="round" width="185" stroke-linecap="round" stroke-width="2" x="300" ry="3" height="36"></rect><g class="content"><g><g><g><g><g></g><text fill="#293845" hover-props="{}"><tspan x="323.48681640625" y="521.5" font-family="DIN Next, system-ui, sans-serif" font-size="18" font-style="normal" font-weight="normal">Recent Blockhash</tspan></text></g></g></g></g></g></g></g></g></g><g><g><rect x="559" y="382" width="221" height="192" rx="3" ry="3" fill="#ffffff"></rect><rect y="382" rx="3" stroke="#C3CFD9" fill="none" stroke-linejoin="round" width="221" stroke-linecap="round" stroke-width="2" x="559" ry="3" height="192"></rect><g class="content"><g><g><g><g><g></g><text fill="#293845" hover-props="{}"><tspan x="627.63134765625" y="412.5" font-family="DIN Next, system-ui, sans-serif" font-size="18" font-style="normal" font-weight="normal">Instruction</tspan></text></g></g></g></g></g></g><g><g><g><rect x="587" y="512" width="169" height="36" rx="3" ry="3" fill="#F2F5F7"></rect><rect y="512" rx="3" stroke="#C3CFD9" fill="none" stroke-linejoin="round" width="169" stroke-linecap="round" stroke-width="2" x="587" ry="3" height="36"></rect><g class="content"><g><g><g><g><g></g><text fill="#293845" hover-props="{}"><tspan x="599" y="536.5" font-family="DIN Next, system-ui, sans-serif" font-size="18" font-style="normal" font-weight="normal">Transfer Amount</tspan></text></g></g></g></g></g></g></g><g><g><rect x="587" y="476" width="169" height="36" rx="3" ry="3" fill="#F2F5F7"></rect><rect y="476" rx="3" stroke="#C3CFD9" fill="none" stroke-linejoin="round" width="169" stroke-linecap="round" stroke-width="2" x="587" ry="3" height="36"></rect><g class="content"><g><g><g><g><g></g><text fill="#293845" hover-props="{}"><tspan x="599" y="500.5" font-family="DIN Next, system-ui, sans-serif" font-size="18" font-style="normal" font-weight="normal">Accounts:</tspan></text></g></g></g></g></g></g></g><g><g><rect x="587" y="440" width="169" height="36" rx="3" ry="3" fill="#F2F5F7"></rect><rect y="440" rx="3" stroke="#C3CFD9" fill="none" stroke-linejoin="round" width="169" stroke-linecap="round" stroke-width="2" x="587" ry="3" height="36"></rect><g class="content"><g><g><g><g><g></g><text fill="#293845" hover-props="{}"><tspan x="599" y="464.5" font-family="DIN Next, system-ui, sans-serif" font-size="18" font-style="normal" font-weight="normal">System Program</tspan></text></g></g></g></g></g></g></g></g></g><g><g><path d="M547,382c-8.5604,0 -15.5,6.9396 -15.5,15.5c0,8.5604 0,56.4396 0,65c0,8.5604 -6.9396,15.5 -15.5,15.5c-8.5604,0 0,0 0,0c0,0 -8.5604,0 0,0c8.5604,0 15.5,6.9396 15.5,15.5c0,8.5604 0,56.4396 0,65c0,8.5604 6.9396,15.5 15.5,15.5" fill="rgba(0,0,0,0)"></path><path d="M547,382c-8.5604,0 -15.5,6.9396 -15.5,15.5c0,8.5604 0,56.4396 0,65c0,8.5604 -6.9396,15.5 -15.5,15.5c-8.5604,0 0,0 0,0c0,0 -8.5604,0 0,0c8.5604,0 15.5,6.9396 15.5,15.5c0,8.5604 0,56.4396 0,65c0,8.5604 6.9396,15.5 15.5,15.5" fill="none" stroke="#788896" stroke-linecap="round" stroke-linejoin="round" stroke-width="2"></path></g></g><g><g><path d="M816,366c-6.62741,0 -12,5.37259 -12,12c0,6.62741 0,93.37259 0,100c0,6.62741 -5.37259,12 -12,12c-6.62741,0 0,0 0,0c0,0 -6.62741,0 0,0c6.62741,0 12,5.37259 12,12c0,6.62741 0,93.37259 0,100c0,6.62741 5.37259,12 12,12" fill="rgba(0,0,0,0)"></path><path d="M816,366c-6.62741,0 -12,5.37259 -12,12c0,6.62741 0,93.37259 0,100c0,6.62741 -5.37259,12 -12,12c-6.62741,0 0,0 0,0c0,0 -6.62741,0 0,0c6.62741,0 12,5.37259 12,12c0,6.62741 0,93.37259 0,100c0,6.62741 5.37259,12 12,12" fill="none" stroke="#788896" stroke-linecap="round" stroke-linejoin="round" stroke-width="2"></path></g></g><g><g><rect x="824" y="402" width="172" height="36" rx="3" ry="3" fill="#F2F5F7"></rect><rect y="402" rx="3" stroke="#C3CFD9" fill="none" stroke-linejoin="round" width="172" stroke-linecap="round" stroke-width="2" x="824" ry="3" height="36"></rect><g class="content"><g><g><g><g><g></g><text fill="#293845" hover-props="{}"><tspan x="836" y="426.5" font-family="DIN Next, system-ui, sans-serif" font-size="18" font-style="normal" font-weight="normal">is_signer: true</tspan></text></g></g></g></g></g></g></g><g><g><rect x="824" y="438" width="172" height="36" rx="3" ry="3" fill="#F2F5F7"></rect><rect y="438" rx="3" stroke="#C3CFD9" fill="none" stroke-linejoin="round" width="172" stroke-linecap="round" stroke-width="2" x="824" ry="3" height="36"></rect><g class="content"><g><g><g><g><g></g><text fill="#293845" hover-props="{}"><tspan x="836" y="462.5" font-family="DIN Next, system-ui, sans-serif" font-size="18" font-style="normal" font-weight="normal">is_writable: true</tspan></text></g></g></g></g></g></g></g><g><g><rect x="824" y="510" width="172" height="36" rx="3" ry="3" fill="#E3E8ED"></rect><rect y="510" rx="3" stroke="#9EADBA" fill="none" stroke-linejoin="round" width="172" stroke-linecap="round" stroke-width="2" x="824" ry="3" height="36"></rect><g class="content"><g><g><g><g><g></g><text fill="#293845" hover-props="{}"><tspan x="836" y="534.5" font-family="DIN Next, system-ui, sans-serif" font-size="18" font-style="normal" font-weight="normal">Receiver Address</tspan></text></g></g></g></g></g></g></g><g><g><rect x="824" y="546" width="172" height="36" rx="3" ry="3" fill="#F2F5F7"></rect><rect y="546" rx="3" stroke="#C3CFD9" fill="none" stroke-linejoin="round" width="172" stroke-linecap="round" stroke-width="2" x="824" ry="3" height="36"></rect><g class="content"><g><g><g><g><g></g><text fill="#293845" hover-props="{}"><tspan x="836" y="570.5" font-family="DIN Next, system-ui, sans-serif" font-size="18" font-style="normal" font-weight="normal">is_signer: false</tspan></text></g></g></g></g></g></g></g><g><g><rect x="824" y="582" width="172" height="36" rx="3" ry="3" fill="#F2F5F7"></rect><rect y="582" rx="3" stroke="#C3CFD9" fill="none" stroke-linejoin="round" width="172" stroke-linecap="round" stroke-width="2" x="824" ry="3" height="36"></rect><g class="content"><g><g><g><g><g></g><text fill="#293845" hover-props="{}"><tspan x="836" y="606.5" font-family="DIN Next, system-ui, sans-serif" font-size="18" font-style="normal" font-weight="normal">is_writable: true</tspan></text></g></g></g></g></g></g></g><g><g class="content"><g><g><g><g><g></g><text fill="#293845" hover-props="{}"><tspan x="276" y="258.5" font-family="DIN Next, system-ui, sans-serif" font-size="18" font-style="normal" font-weight="normal">Address</tspan></text></g></g></g></g></g></g><g><g><rect x="276" y="264" width="221" height="36" rx="3" ry="3" fill="#e0defd"></rect><rect y="264" rx="3" stroke="#6558F5" fill="none" stroke-linejoin="round" width="221" stroke-linecap="round" stroke-width="2" x="276" ry="3" height="36"></rect><g class="content"><g><g><g><g><g></g><text fill="#293845" hover-props="{}"><tspan x="299.1005859375" y="288.5" font-family="DIN Next, system-ui, sans-serif" font-size="18" font-style="normal" font-weight="normal">Sender Wallet Account</tspan></text></g></g></g></g></g></g></g><g><g><path d="M386.5,309v14M386.5,351v17" fill="none" stroke="#788896" stroke-linecap="round" stroke-linejoin="round" stroke-width="4"></path><polygon points="392.04095,364.9079 386.5,372 380.95905,364.9079" fill="#788896" stroke="#788896" stroke-width="2" stroke-linecap="round" stroke-linejoin="round"></polygon><g class="content"><g><g><g><g><g></g><text fill="#293845" hover-props="{}"><tspan x="322.578125" y="343.5" font-family="DIN Next, system-ui, sans-serif" font-size="18" font-style="normal" font-weight="normal">Signs and Sends</tspan></text></g></g></g></g></g></g></g><g><g><rect x="824" y="366" width="172" height="36" rx="3" ry="3" fill="#E3E8ED"></rect><rect y="366" rx="3" stroke="#9EADBA" fill="none" stroke-linejoin="round" width="172" stroke-linecap="round" stroke-width="2" x="824" ry="3" height="36"></rect><g class="content"><g><g><g><g><g></g><text fill="#293845" hover-props="{}"><tspan x="836" y="390.5" font-family="DIN Next, system-ui, sans-serif" font-size="18" font-style="normal" font-weight="normal">Sender Address</tspan></text></g></g></g></g></g></g></g><g><g class="content"><g><g><g><g><g></g><text fill="#293845" hover-props="{}"><tspan x="571" y="372.5" font-family="DIN Next, system-ui, sans-serif" font-size="18" font-style="normal" font-weight="normal">SOL Transfer Instruction</tspan></text></g></g></g></g></g></g></g></g></svg>