<svg xmlns="http://www.w3.org/2000/svg" xmlns:xlink="http://www.w3.org/1999/xlink" version="1.1" viewBox="1080 240 1020 540" width="1020px" height="540px"><defs><style>@font-face{
    font-family:"DIN Next";
    font-weight: 400;
    src:url("https://whimsical.com/fonts/139e8e25-0eea-4cb4-a5d4-79048803e73d.eot?#iefix");
    src:url("https://whimsical.com/fonts/139e8e25-0eea-4cb4-a5d4-79048803e73d.eot?#iefix") format("eot"),url("https://whimsical.com/fonts/094b15e3-94bd-435b-a595-d40edfde661a.woff2") format("woff2"),url("https://whimsical.com/fonts/7e5fbe11-4858-4bd1-9ec6-a1d9f9d227aa.woff") format("woff"),url("https://whimsical.com/fonts/0f11eff9-9f05-46f5-9703-027c510065d7.ttf") format("truetype"),url("https://whimsical.com/fonts/48b61978-3f30-4274-823c-5cdcd1876918.svg#48b61978-3f30-4274-823c-5cdcd1876918") format("svg");
}
@font-face{
    font-family:"DIN Next";
    font-weight: 400;
    font-style: italic;
    src:url("https://whimsical.com/fonts/df24d5e8-5087-42fd-99b1-b16042d666c8.eot?#iefix");
    src:url("https://whimsical.com/fonts/df24d5e8-5087-42fd-99b1-b16042d666c8.eot?#iefix") format("eot"),url("https://whimsical.com/fonts/46251881-ffe9-4bfb-99c7-d6ce3bebaf3e.woff2") format("woff2"),url("https://whimsical.com/fonts/790ebbf2-62c5-4a32-946f-99d405f9243e.woff") format("woff"),url("https://whimsical.com/fonts/d28199e6-0f4a-42df-97f4-606701c6f75a.ttf") format("truetype"),url("https://whimsical.com/fonts/37a462c0-d86e-492c-b9ab-35e6bd417f6c.svg#37a462c0-d86e-492c-b9ab-35e6bd417f6c") format("svg");
}
@font-face{
    font-weight: 500;
    font-family:"DIN Next";
    src:url("https://whimsical.com/fonts/c5b058fc-55ce-4e06-a175-5c7d9a7e90f4.eot?#iefix");
    src:url("https://whimsical.com/fonts/c5b058fc-55ce-4e06-a175-5c7d9a7e90f4.eot?#iefix") format("eot"),url("https://whimsical.com/fonts/7b29ae40-30ff-4f99-a2b9-cde88669fa2f.woff2") format("woff2"),url("https://whimsical.com/fonts/bf73077c-e354-4562-a085-f4703eb1d653.woff") format("woff"),url("https://whimsical.com/fonts/0ffa6947-5317-4d07-b525-14d08a028821.ttf") format("truetype"),url("https://whimsical.com/fonts/9e423e45-5450-4991-a157-dbe6cf61eb4e.svg#9e423e45-5450-4991-a157-dbe6cf61eb4e") format("svg");
}
@font-face{
    font-family:"DIN Next";
    font-weight: 500;
    font-style: italic;
    src:url("https://whimsical.com/fonts/9897c008-fd65-48a4-afc7-36de2fea97b9.eot?#iefix");
    src:url("https://whimsical.com/fonts/9897c008-fd65-48a4-afc7-36de2fea97b9.eot?#iefix") format("eot"),url("https://whimsical.com/fonts/c7717981-647d-4b76-8817-33062e42d11f.woff2") format("woff2"),url("https://whimsical.com/fonts/b852cd4c-1255-40b1-a2be-73a9105b0155.woff") format("woff"),url("https://whimsical.com/fonts/821b00ad-e741-4e2d-af1a-85594367c8a2.ttf") format("truetype"),url("https://whimsical.com/fonts/d3e3b689-a6b0-45f2-b279-f5e194f87409.svg#d3e3b689-a6b0-45f2-b279-f5e194f87409") format("svg");
}
@font-face{
    font-weight: 700;
    font-family:"DIN Next";
    src:url("https://whimsical.com/fonts/81cd3b08-fd39-4ae3-8d05-9d24709eba84.eot?#iefix");
    src:url("https://whimsical.com/fonts/81cd3b08-fd39-4ae3-8d05-9d24709eba84.eot?#iefix") format("eot"),url("https://whimsical.com/fonts/31704504-4671-47a6-a61e-397f07410d91.woff2") format("woff2"),url("https://whimsical.com/fonts/b8a280da-481f-44a0-8d9c-1bc64bd7227c.woff") format("woff"),url("https://whimsical.com/fonts/276d122a-0fab-447b-9fc0-5d7fb0eafce2.ttf") format("truetype"),url("https://whimsical.com/fonts/8fb8273a-8213-4928-808b-b5bfaf3fd7e9.svg#8fb8273a-8213-4928-808b-b5bfaf3fd7e9") format("svg");
}
@font-face{
    font-family:"DIN Next";
    font-weight: 700;
    font-style: italic;
    src:url("https://whimsical.com/fonts/00cc6df3-ed32-4004-8dd8-1c576600a408.eot?#iefix");
    src:url("https://whimsical.com/fonts/00cc6df3-ed32-4004-8dd8-1c576600a408.eot?#iefix") format("eot"),url("https://whimsical.com/fonts/4132c4c8-680c-4d6d-9251-a2da38503bbd.woff2") format("woff2"),url("https://whimsical.com/fonts/366401fe-6df4-47be-8f55-8a411cff0dd2.woff") format("woff"),url("https://whimsical.com/fonts/dbe4f7ba-fc16-44a6-a577-571620e9edaf.ttf") format("truetype"),url("https://whimsical.com/fonts/f874edca-ee87-4ccf-8b1d-921fbc3c1c36.svg#f874edca-ee87-4ccf-8b1d-921fbc3c1c36") format("svg");
}

@font-face {
    font-family: 'PFDINMonoPro';
    src:url('https://whimsical.com/fonts/PFDINMonoPro-Regular.woff') format('woff');
    font-weight: 400;
}
@font-face {
    font-family: 'PFDINMonoPro';
    src:url('https://whimsical.com/fonts/PFDINMonoPro-Italic.woff') format('woff');
    font-style: italic;
    font-weight: 400;
}
@font-face {
    font-family: 'PFDINMonoPro';
    src:url('https://whimsical.com/fonts/PFDINMonoPro-Bold.woff') format('woff');
    font-weight: 700;
}
@font-face {
    font-family: 'PFDINMonoPro';
    src:url('https://whimsical.com/fonts/PFDINMonoPro-BoldItalic.woff') format('woff');
    font-style: italic;
    font-weight: 700;
}
* {-webkit-font-smoothing: auto; -moz-osx-font-smoothing: auto;}@media print { svg { width: 100%; height: 100%; } }</style><g><filter id="white-fill-shadow" y="-50%" height="200%"><feDropShadow dx="0" dy="2" stdDeviation="6" flood-opacity="0.03" flood-color="#000000"></feDropShadow></filter><filter id="light-gray-fill-shadow" y="-50%" height="200%"><feDropShadow dx="0" dy="2" stdDeviation="6" flood-opacity="0.09" flood-color="#000000"></feDropShadow></filter><filter id="yellow-fill-shadow" y="-50%" height="200%"><feDropShadow dx="0" dy="2" stdDeviation="6" flood-opacity="0.12" flood-color="#000000"></feDropShadow></filter><filter id="fill-shadow" y="-50%" height="200%"><feDropShadow dx="0" dy="2" stdDeviation="6" flood-opacity="0.16" flood-color="#000000"></feDropShadow></filter><filter id="frame-shadow" y="-50%" height="200%"><feDropShadow dx="0" dy="3" stdDeviation="8" flood-opacity="0.06" flood-color="#000000"></feDropShadow></filter><filter id="button-shadow" y="-50%" height="200%"><feDropShadow dx="0" dy="2" stdDeviation="6" flood-opacity="0.03" flood-color="#000000"></feDropShadow></filter><filter id="button-hover-shadow" y="-50%" height="200%"><feDropShadow dx="0" dy="2" stdDeviation="6" flood-opacity="0.08" flood-color="#000000"></feDropShadow></filter><filter id="badge-shadow" y="-50%" height="200%"><feDropShadow dx="0" dy="2" stdDeviation="6" flood-opacity="0.08" flood-color="#000000"></feDropShadow></filter></g></defs><g><rect x="1080" y="240" width="1020" height="540" rx="3" ry="3" fill="#FFFFFF" filter="url(#white-fill-shadow)"></rect><g><rect x="1080" y="240" width="1020" height="540" rx="3" ry="3" fill="#FFFFFF"></rect></g><g><g><g><g><g><rect width="290.5" height="55" x="1779" y="613" stroke="#E8833A" stroke-width="2" fill="#fae6d8"></rect></g></g><g><g><g transform="translate(1794 622) rotate(0 18 18)"><svg id="sd379c306-f35a-4ab0-902a-c95c4d330fa2" width="36" height="36" viewBox="0 0 48 48" data-icon-name="hash-mark" data-icon-partition="g48-13" data-icon-color="#FFFFFF"><style>#sd379c306-f35a-4ab0-902a-c95c4d330fa2 *[fill=&#x27;#444444&#x27;], #sd379c306-f35a-4ab0-902a-c95c4d330fa2 *[fill=&#x27;#444&#x27;] {fill:#FFFFFF;}#sd379c306-f35a-4ab0-902a-c95c4d330fa2 *[stroke=&#x27;#444444&#x27;], #sd379c306-f35a-4ab0-902a-c95c4d330fa2 *[stroke=&#x27;#444&#x27;] {stroke:#FFFFFF;}</style><g><path d="M43,19V14H36.028L37.9,1.5H32.847L30.972,14H20.028L21.9,1.5H16.847L14.972,14H7v5h7.222l-1.5,10H5v5h6.973L10.1,46.5h5.055L17.028,34H27.972L26.1,46.5h5.056L33.028,34H41V29H33.778l1.5-10ZM28.722,29H17.778l1.5-10H30.222Z" fill="#444"></path></g></svg></g></g></g><g><g class="content"><g><g><g><g><g></g><text fill="#293845" hover-props="{}"><tspan x="1864" y="649.5" font-family="DIN Next, system-ui, sans-serif" font-size="27" font-style="normal" font-weight="normal">Counter: 126</tspan></text></g></g></g></g></g></g><g><g class="content"><g><g><g><g><g></g><text fill="#293845" hover-props="{}"><tspan x="1780" y="604.5" font-family="DIN Next, system-ui, sans-serif" font-size="18" font-style="normal" font-weight="normal">PROGRAM DERIVED ADDRESS</tspan></text></g></g></g></g></g></g></g></g><g><g><path d="M1796,371v13M1796,412v90" fill="none" stroke="#C3CFD9" stroke-linecap="round" stroke-linejoin="round" stroke-width="4"></path><polygon points="1801.54095,498.9079 1796,506 1790.45905,498.9079" fill="#C3CFD9" stroke="#C3CFD9" stroke-width="2" stroke-linecap="round" stroke-linejoin="round"></polygon><g class="content"><g><g><g><g><g></g><text fill="#293845" hover-props="{}"><tspan x="1777.5322265625" y="404.5" font-family="DIN Next, system-ui, sans-serif" font-size="18" font-style="normal" font-weight="normal">seed</tspan></text></g></g></g></g></g></g></g><g><g><g><rect x="1704" y="306.5333333333333" width="180" height="56.4666666666667" rx="3" ry="3" fill="#FFFFFF" filter="url(#fill-shadow)"></rect><g><rect x="1704" y="306.5333333333333" width="180" height="56.4666666666667" rx="3" ry="3" fill="#2C88D9"></rect><g class="content"><g><g><g><g><g></g><text fill="#FFFFFF" hover-props="{}"><tspan x="1729.61474609375" y="341.26666666666665" font-family="DIN Next, system-ui, sans-serif" font-size="18" font-style="normal" font-weight="normal">“GLOBAL STATE”</tspan></text></g></g></g></g></g></g></g><g><g class="content"><g><g><g><g><g></g><text fill="#293845" hover-props="{}"><tspan x="1704" y="304.5" font-family="DIN Next, system-ui, sans-serif" font-size="18" font-style="normal" font-weight="normal">STRING</tspan></text></g></g></g></g></g></g></g></g><g><g><g><g><g><g><rect width="246" height="100" x="1339" y="386" stroke="#730FC3" stroke-width="2" fill="#e3cff3"></rect></g></g><g><g class="content"><g><g><g><g><g></g><text fill="#293845" hover-props="{}"><tspan x="1355" y="411.375" font-family="DIN Next, system-ui, sans-serif" font-size="18" font-style="normal" font-weight="normal">Ping counter program</tspan></text></g></g></g></g></g></g></g></g><g><g><g transform="translate(1359.0348958333334 424.43281249999995) rotate(0 18.0984375 18.0984375)"><svg id="sf82e16af-3a13-43d0-9353-b0136929ba31" width="36.196875" height="36.196875" viewBox="0 0 12 12" data-icon-name="cogwheel" data-icon-partition="g12-1" data-icon-color="#730FC3"><style>#sf82e16af-3a13-43d0-9353-b0136929ba31 *[fill=&#x27;#444444&#x27;], #sf82e16af-3a13-43d0-9353-b0136929ba31 *[fill=&#x27;#444&#x27;] {fill:#730FC3;}#sf82e16af-3a13-43d0-9353-b0136929ba31 *[stroke=&#x27;#444444&#x27;], #sf82e16af-3a13-43d0-9353-b0136929ba31 *[stroke=&#x27;#444&#x27;] {stroke:#730FC3;}</style><g><path d="M11.555,5l-1.486-.165a4.223,4.223,0,0,0-.37-.893l.934-1.168a.5.5,0,0,0-.037-.666L9.889,1.4a.5.5,0,0,0-.666-.037L8.055,2.3a4.223,4.223,0,0,0-.893-.37L7,.445A.5.5,0,0,0,6.5,0h-1A.5.5,0,0,0,5,.445L4.838,1.931a4.223,4.223,0,0,0-.893.37L2.777,1.367a.5.5,0,0,0-.666.037L1.4,2.111a.5.5,0,0,0-.037.666L2.3,3.945a4.223,4.223,0,0,0-.37.893L.445,5A.5.5,0,0,0,0,5.5v1A.5.5,0,0,0,.445,7l1.486.165a4.223,4.223,0,0,0,.37.893L1.367,9.223a.5.5,0,0,0,.037.666l.707.707a.5.5,0,0,0,.666.037L3.945,9.7a4.223,4.223,0,0,0,.893.37L5,11.555A.5.5,0,0,0,5.5,12h1a.5.5,0,0,0,.5-.445l.165-1.486a4.223,4.223,0,0,0,.893-.37l1.168.934a.5.5,0,0,0,.666-.037l.707-.707a.5.5,0,0,0,.037-.666L9.7,8.055a4.223,4.223,0,0,0,.37-.893L11.555,7A.5.5,0,0,0,12,6.5v-1A.5.5,0,0,0,11.555,5ZM6,8A2,2,0,1,1,8,6,2,2,0,0,1,6,8Z" fill="#444"></path></g></svg></g></g></g><g><g class="content"><g><g><g><g><g></g><text fill="#293845" hover-props="{}"><tspan x="1413" y="442.46875" font-family="DIN Next, system-ui, sans-serif" font-size="18" font-style="normal" font-weight="normal">Increment</tspan></text></g></g></g></g></g></g></g></g><g><g><path d="M1601,431.18519h37M1728,431.18519h53c8.28426,0 15,6.71574 15,15v55.81481" fill="none" stroke="#C3CFD9" stroke-linecap="round" stroke-linejoin="round" stroke-width="4"></path><polygon points="1801.54095,498.9079 1796,506 1790.45905,498.9079" fill="#C3CFD9" stroke="#C3CFD9" stroke-width="2" stroke-linecap="round" stroke-linejoin="round"></polygon><g class="content"><g><g><g><g><g></g><text fill="#293845" hover-props="{}"><tspan x="1642.3203125" y="437.5" font-family="DIN Next, system-ui, sans-serif" font-size="18" font-style="normal" font-weight="normal">programId</tspan></text></g></g></g></g></g></g></g><g><g><rect x="1680" y="514" width="233" height="36" rx="3" ry="3" fill="#ffffff"></rect><rect y="514" rx="3" stroke="#C3CFD9" fill="none" stroke-linejoin="round" width="233" stroke-linecap="round" stroke-width="2" x="1680" ry="3" height="36"></rect><g class="content"><g><g><g><g><g></g><text fill="#293845" hover-props="{}"><tspan x="1710.46044921875" y="538.5" font-family="DIN Next, system-ui, sans-serif" font-size="18" font-style="normal" font-weight="normal">findProgramAddress()</tspan></text></g></g></g></g></g></g></g><g><g><line stroke="#C3CFD9" fill="none" stroke-linejoin="round" y1="558.0000000000001" stroke-linecap="round" stroke-width="4" x1="1796" y2="574.0000000000002" x2="1796"></line><polygon points="1801.54095,570.9079 1796,578 1790.45905,570.9079" fill="#C3CFD9" stroke="#C3CFD9" stroke-width="2" stroke-linecap="round" stroke-linejoin="round"></polygon></g></g><g><g><path d="M1233.36097,299.76135c47.55273,131.40765 95.77312,262.26819 214.63903,335.23865c119.16908,73.15658 309.34452,88.12739 500.01162,102.69531" fill="none" stroke="#730FC3" stroke-linecap="round" stroke-linejoin="round" stroke-width="4"></path><polygon points="1229.20251,304.55418 1232,296 1239.62331,300.78384" fill="#730FC3" stroke="#730FC3" stroke-width="2" stroke-linecap="round" stroke-linejoin="round"></polygon><polygon points="1945.35054,731.93496 1952,738 1944.50647,742.98467" fill="#730FC3" stroke="#730FC3" stroke-width="2" stroke-linecap="round" stroke-linejoin="round"></polygon></g></g><g><g class="content"><g><g><g><g><g></g><text fill="#293845" hover-props="{}"><tspan x="1116" y="632.5" font-family="DIN Next, system-ui, sans-serif" font-size="36" font-style="normal" font-weight="normal">Ed25519 curve</tspan></text></g></g></g></g></g></g><g><g><g><g class="content"><g><g><g><g><g></g><text fill="#293845" hover-props="{}"><tspan x="1339" y="508.5" font-family="DIN Next, system-ui, sans-serif" font-size="18" font-style="normal" font-weight="normal">ADDRESS</tspan></text></g></g></g></g></g></g><g><g><ellipse stroke="#730FC3" stroke-width="2" fill="#e3cff3" cx="1319.5" cy="503.5" rx="11" ry="11"></ellipse></g></g></g></g></g></g></svg>