<svg xmlns="http://www.w3.org/2000/svg" xmlns:xlink="http://www.w3.org/1999/xlink" version="1.1" viewBox="-168 275 756 324" width="756px" height="324px"><defs><style>@font-face{
    font-family:"DIN Next";
    font-weight: 400;
    src:url("https://whimsical.com/fonts/139e8e25-0eea-4cb4-a5d4-79048803e73d.eot?#iefix");
    src:url("https://whimsical.com/fonts/139e8e25-0eea-4cb4-a5d4-79048803e73d.eot?#iefix") format("eot"),url("https://whimsical.com/fonts/094b15e3-94bd-435b-a595-d40edfde661a.woff2") format("woff2"),url("https://whimsical.com/fonts/7e5fbe11-4858-4bd1-9ec6-a1d9f9d227aa.woff") format("woff"),url("https://whimsical.com/fonts/0f11eff9-9f05-46f5-9703-027c510065d7.ttf") format("truetype"),url("https://whimsical.com/fonts/48b61978-3f30-4274-823c-5cdcd1876918.svg#48b61978-3f30-4274-823c-5cdcd1876918") format("svg");
}
@font-face{
    font-family:"DIN Next";
    font-weight: 400;
    font-style: italic;
    src:url("https://whimsical.com/fonts/df24d5e8-5087-42fd-99b1-b16042d666c8.eot?#iefix");
    src:url("https://whimsical.com/fonts/df24d5e8-5087-42fd-99b1-b16042d666c8.eot?#iefix") format("eot"),url("https://whimsical.com/fonts/46251881-ffe9-4bfb-99c7-d6ce3bebaf3e.woff2") format("woff2"),url("https://whimsical.com/fonts/790ebbf2-62c5-4a32-946f-99d405f9243e.woff") format("woff"),url("https://whimsical.com/fonts/d28199e6-0f4a-42df-97f4-606701c6f75a.ttf") format("truetype"),url("https://whimsical.com/fonts/37a462c0-d86e-492c-b9ab-35e6bd417f6c.svg#37a462c0-d86e-492c-b9ab-35e6bd417f6c") format("svg");
}
@font-face{
    font-weight: 500;
    font-family:"DIN Next";
    src:url("https://whimsical.com/fonts/c5b058fc-55ce-4e06-a175-5c7d9a7e90f4.eot?#iefix");
    src:url("https://whimsical.com/fonts/c5b058fc-55ce-4e06-a175-5c7d9a7e90f4.eot?#iefix") format("eot"),url("https://whimsical.com/fonts/7b29ae40-30ff-4f99-a2b9-cde88669fa2f.woff2") format("woff2"),url("https://whimsical.com/fonts/bf73077c-e354-4562-a085-f4703eb1d653.woff") format("woff"),url("https://whimsical.com/fonts/0ffa6947-5317-4d07-b525-14d08a028821.ttf") format("truetype"),url("https://whimsical.com/fonts/9e423e45-5450-4991-a157-dbe6cf61eb4e.svg#9e423e45-5450-4991-a157-dbe6cf61eb4e") format("svg");
}
@font-face{
    font-family:"DIN Next";
    font-weight: 500;
    font-style: italic;
    src:url("https://whimsical.com/fonts/9897c008-fd65-48a4-afc7-36de2fea97b9.eot?#iefix");
    src:url("https://whimsical.com/fonts/9897c008-fd65-48a4-afc7-36de2fea97b9.eot?#iefix") format("eot"),url("https://whimsical.com/fonts/c7717981-647d-4b76-8817-33062e42d11f.woff2") format("woff2"),url("https://whimsical.com/fonts/b852cd4c-1255-40b1-a2be-73a9105b0155.woff") format("woff"),url("https://whimsical.com/fonts/821b00ad-e741-4e2d-af1a-85594367c8a2.ttf") format("truetype"),url("https://whimsical.com/fonts/d3e3b689-a6b0-45f2-b279-f5e194f87409.svg#d3e3b689-a6b0-45f2-b279-f5e194f87409") format("svg");
}
@font-face{
    font-weight: 700;
    font-family:"DIN Next";
    src:url("https://whimsical.com/fonts/81cd3b08-fd39-4ae3-8d05-9d24709eba84.eot?#iefix");
    src:url("https://whimsical.com/fonts/81cd3b08-fd39-4ae3-8d05-9d24709eba84.eot?#iefix") format("eot"),url("https://whimsical.com/fonts/31704504-4671-47a6-a61e-397f07410d91.woff2") format("woff2"),url("https://whimsical.com/fonts/b8a280da-481f-44a0-8d9c-1bc64bd7227c.woff") format("woff"),url("https://whimsical.com/fonts/276d122a-0fab-447b-9fc0-5d7fb0eafce2.ttf") format("truetype"),url("https://whimsical.com/fonts/8fb8273a-8213-4928-808b-b5bfaf3fd7e9.svg#8fb8273a-8213-4928-808b-b5bfaf3fd7e9") format("svg");
}
@font-face{
    font-family:"DIN Next";
    font-weight: 700;
    font-style: italic;
    src:url("https://whimsical.com/fonts/00cc6df3-ed32-4004-8dd8-1c576600a408.eot?#iefix");
    src:url("https://whimsical.com/fonts/00cc6df3-ed32-4004-8dd8-1c576600a408.eot?#iefix") format("eot"),url("https://whimsical.com/fonts/4132c4c8-680c-4d6d-9251-a2da38503bbd.woff2") format("woff2"),url("https://whimsical.com/fonts/366401fe-6df4-47be-8f55-8a411cff0dd2.woff") format("woff"),url("https://whimsical.com/fonts/dbe4f7ba-fc16-44a6-a577-571620e9edaf.ttf") format("truetype"),url("https://whimsical.com/fonts/f874edca-ee87-4ccf-8b1d-921fbc3c1c36.svg#f874edca-ee87-4ccf-8b1d-921fbc3c1c36") format("svg");
}

@font-face {
    font-family: 'PFDINMonoPro';
    src:url('https://whimsical.com/fonts/PFDINMonoPro-Regular.woff') format('woff');
    font-weight: 400;
}
@font-face {
    font-family: 'PFDINMonoPro';
    src:url('https://whimsical.com/fonts/PFDINMonoPro-Italic.woff') format('woff');
    font-style: italic;
    font-weight: 400;
}
@font-face {
    font-family: 'PFDINMonoPro';
    src:url('https://whimsical.com/fonts/PFDINMonoPro-Bold.woff') format('woff');
    font-weight: 700;
}
@font-face {
    font-family: 'PFDINMonoPro';
    src:url('https://whimsical.com/fonts/PFDINMonoPro-BoldItalic.woff') format('woff');
    font-style: italic;
    font-weight: 700;
}
* {-webkit-font-smoothing: auto; -moz-osx-font-smoothing: auto;}@media print { svg { width: 100%; height: 100%; } }</style><g><filter id="white-fill-shadow" y="-50%" height="200%"><feDropShadow dx="0" dy="2" stdDeviation="6" flood-opacity="0.03" flood-color="#000000"></feDropShadow></filter><filter id="light-gray-fill-shadow" y="-50%" height="200%"><feDropShadow dx="0" dy="2" stdDeviation="6" flood-opacity="0.09" flood-color="#000000"></feDropShadow></filter><filter id="yellow-fill-shadow" y="-50%" height="200%"><feDropShadow dx="0" dy="2" stdDeviation="6" flood-opacity="0.12" flood-color="#000000"></feDropShadow></filter><filter id="fill-shadow" y="-50%" height="200%"><feDropShadow dx="0" dy="2" stdDeviation="6" flood-opacity="0.16" flood-color="#000000"></feDropShadow></filter><filter id="frame-shadow" y="-50%" height="200%"><feDropShadow dx="0" dy="3" stdDeviation="8" flood-opacity="0.06" flood-color="#000000"></feDropShadow></filter><filter id="button-shadow" y="-50%" height="200%"><feDropShadow dx="0" dy="2" stdDeviation="6" flood-opacity="0.03" flood-color="#000000"></feDropShadow></filter><filter id="button-hover-shadow" y="-50%" height="200%"><feDropShadow dx="0" dy="2" stdDeviation="6" flood-opacity="0.08" flood-color="#000000"></feDropShadow></filter><filter id="badge-shadow" y="-50%" height="200%"><feDropShadow dx="0" dy="2" stdDeviation="6" flood-opacity="0.08" flood-color="#000000"></feDropShadow></filter></g></defs><g><rect x="-168" y="276" width="756" height="324.00000000000006" rx="3" ry="3" fill="#FFFFFF" filter="url(#white-fill-shadow)"></rect><g><rect x="-168" y="276" width="756" height="324.00000000000006" rx="3" ry="3" fill="#FFFFFF"></rect></g><g><g><g class="content"><g><g><g><g><g></g><text fill="#293845" hover-props="{}"><tspan x="-132" y="486.5" font-family="DIN Next, system-ui, sans-serif" font-size="18" font-style="normal" font-weight="normal">Address</tspan></text></g></g></g></g></g></g><g><g class="content"><g><g><g><g><g></g><text fill="#293845" hover-props="{}"><tspan x="-132" y="312.5" font-family="DIN Next, system-ui, sans-serif" font-size="18" font-style="normal" font-weight="normal">Address</tspan></text></g></g></g></g></g></g><g><g><rect x="-132" y="492" width="180" height="36" rx="3" ry="3" fill="#d5e7f7"></rect><rect y="492" rx="3" stroke="#2C88D9" fill="none" stroke-linejoin="round" width="180" stroke-linecap="round" stroke-width="2" x="-132" ry="3" height="36"></rect><g class="content"><g><g><g><g><g></g><text fill="#293845" hover-props="{}"><tspan x="-91.8515625" y="516.5" font-family="DIN Next, system-ui, sans-serif" font-size="18" font-style="normal" font-weight="normal">Mint Account</tspan></text></g></g></g></g></g></g></g><g><g><rect x="-132" y="318" width="180" height="36" rx="3" ry="3" fill="#f2d6f6"></rect><rect y="318" rx="3" stroke="#BD34D1" fill="none" stroke-linejoin="round" width="180" stroke-linecap="round" stroke-width="2" x="-132" ry="3" height="36"></rect><g class="content"><g><g><g><g><g></g><text fill="#293845" hover-props="{}"><tspan x="-101.04931640625" y="342.5" font-family="DIN Next, system-ui, sans-serif" font-size="18" font-style="normal" font-weight="normal">Token Program</tspan></text></g></g></g></g></g></g></g><g><g><path d="M84,432c-6.62741,0 -12,5.37259 -12,12c0,6.62741 0,41.37259 0,48c0,6.62741 -5.37259,12 -12,12c-6.62741,0 0,0 0,0c0,0 -6.62741,0 0,0c6.62741,0 12,5.37259 12,12c0,6.62741 0,41.37259 0,48c0,6.62741 5.37259,12 12,12" fill="rgba(0,0,0,0)"></path><path d="M84,432c-6.62741,0 -12,5.37259 -12,12c0,6.62741 0,41.37259 0,48c0,6.62741 -5.37259,12 -12,12c-6.62741,0 0,0 0,0c0,0 -6.62741,0 0,0c6.62741,0 12,5.37259 12,12c0,6.62741 0,41.37259 0,48c0,6.62741 5.37259,12 12,12" fill="none" stroke="#788896" stroke-linecap="round" stroke-linejoin="round" stroke-width="2"></path></g></g><g><g><rect x="96" y="432" width="240" height="36" rx="3" ry="3" fill="#F2F5F7"></rect><rect y="432" rx="3" stroke="#C3CFD9" fill="none" stroke-linejoin="round" width="240" stroke-linecap="round" stroke-width="2" x="96" ry="3" height="36"></rect><g class="content"><g><g><g><g><g></g><text fill="#293845" hover-props="{}"><tspan x="108" y="456.5" font-family="DIN Next, system-ui, sans-serif" font-size="18" font-style="normal" font-weight="normal">Data:</tspan></text></g></g></g></g></g></g></g><g><g><rect x="96" y="468" width="240" height="36" rx="3" ry="3" fill="#F2F5F7"></rect><rect y="468" rx="3" stroke="#C3CFD9" fill="none" stroke-linejoin="round" width="240" stroke-linecap="round" stroke-width="2" x="96" ry="3" height="36"></rect><g class="content"><g><g><g><g><g></g><text fill="#293845" hover-props="{}"><tspan x="108" y="492.5" font-family="DIN Next, system-ui, sans-serif" font-size="18" font-style="normal" font-weight="normal">Executable: False</tspan></text></g></g></g></g></g></g></g><g><g><rect x="96" y="504" width="240" height="36" rx="3" ry="3" fill="#F2F5F7"></rect><rect y="504" rx="3" stroke="#C3CFD9" fill="none" stroke-linejoin="round" width="240" stroke-linecap="round" stroke-width="2" x="96" ry="3" height="36"></rect><g class="content"><g><g><g><g><g></g><text fill="#293845" hover-props="{}"><tspan x="108" y="528.5" font-family="DIN Next, system-ui, sans-serif" font-size="18" font-style="normal" font-weight="normal">Lamports: Number</tspan></text></g></g></g></g></g></g></g><g><g><rect x="96" y="540" width="240" height="36" rx="3" ry="3" fill="#F2F5F7"></rect><rect y="540" rx="3" stroke="#C3CFD9" fill="none" stroke-linejoin="round" width="240" stroke-linecap="round" stroke-width="2" x="96" ry="3" height="36"></rect><g class="content"><g><g><g><g><g></g><text fill="#293845" hover-props="{}"><tspan x="108" y="564.5" font-family="DIN Next, system-ui, sans-serif" font-size="18" font-style="normal" font-weight="normal">Owner: Token Program</tspan></text></g></g></g></g></g></g></g><g><g><path d="M372,378c-6.62741,0 -12,5.37259 -12,12c0,6.62741 0,41.37259 0,48c0,6.62741 -5.37259,12 -12,12c-6.62741,0 0,0 0,0c0,0 -6.62741,0 0,0c6.62741,0 12,5.37259 12,12c0,6.62741 0,41.37259 0,48c0,6.62741 5.37259,12 12,12" fill="rgba(0,0,0,0)"></path><path d="M372,378c-6.62741,0 -12,5.37259 -12,12c0,6.62741 0,41.37259 0,48c0,6.62741 -5.37259,12 -12,12c-6.62741,0 0,0 0,0c0,0 -6.62741,0 0,0c6.62741,0 12,5.37259 12,12c0,6.62741 0,41.37259 0,48c0,6.62741 5.37259,12 12,12" fill="none" stroke="#788896" stroke-linecap="round" stroke-linejoin="round" stroke-width="2"></path></g></g><g><g><rect x="384" y="450" width="168" height="36" rx="3" ry="3" fill="#F2F5F7"></rect><rect y="450" rx="3" stroke="#C3CFD9" fill="none" stroke-linejoin="round" width="168" stroke-linecap="round" stroke-width="2" x="384" ry="3" height="36"></rect><g class="content"><g><g><g><g><g></g><text fill="#293845" hover-props="{}"><tspan x="396" y="474.5" font-family="DIN Next, system-ui, sans-serif" font-size="18" font-style="normal" font-weight="normal">Mint Authority</tspan></text></g></g></g></g></g></g></g><g><g><rect x="384" y="378" width="168" height="36" rx="3" ry="3" fill="#F2F5F7"></rect><rect y="378" rx="3" stroke="#C3CFD9" fill="none" stroke-linejoin="round" width="168" stroke-linecap="round" stroke-width="2" x="384" ry="3" height="36"></rect><g class="content"><g><g><g><g><g></g><text fill="#293845" hover-props="{}"><tspan x="396" y="402.5" font-family="DIN Next, system-ui, sans-serif" font-size="18" font-style="normal" font-weight="normal">Supply</tspan></text></g></g></g></g></g></g></g><g><g><rect x="384" y="414" width="168" height="36" rx="3" ry="3" fill="#F2F5F7"></rect><rect y="414" rx="3" stroke="#C3CFD9" fill="none" stroke-linejoin="round" width="168" stroke-linecap="round" stroke-width="2" x="384" ry="3" height="36"></rect><g class="content"><g><g><g><g><g></g><text fill="#293845" hover-props="{}"><tspan x="396" y="438.5" font-family="DIN Next, system-ui, sans-serif" font-size="18" font-style="normal" font-weight="normal">Decimals</tspan></text></g></g></g></g></g></g></g><g><g><rect x="384" y="486" width="168" height="36" rx="3" ry="3" fill="#F2F5F7"></rect><rect y="486" rx="3" stroke="#C3CFD9" fill="none" stroke-linejoin="round" width="168" stroke-linecap="round" stroke-width="2" x="384" ry="3" height="36"></rect><g class="content"><g><g><g><g><g></g><text fill="#293845" hover-props="{}"><tspan x="396" y="510.5" font-family="DIN Next, system-ui, sans-serif" font-size="18" font-style="normal" font-weight="normal">Freeze Authority</tspan></text></g></g></g></g></g></g></g><g><g class="content"><g><g><g><g><g></g><text fill="#293845" hover-props="{}"><tspan x="384" y="372.5" font-family="DIN Next, system-ui, sans-serif" font-size="18" font-style="normal" font-weight="normal">Account Data</tspan></text></g></g></g></g></g></g><g><g class="content"><g><g><g><g><g></g><text fill="#293845" hover-props="{}"><tspan x="96" y="426.5" font-family="DIN Next, system-ui, sans-serif" font-size="18" font-style="normal" font-weight="normal">AccountInfo</tspan></text></g></g></g></g></g></g><g><g><path d="M-42,362v43M-42,433v47" fill="none" stroke="#788896" stroke-linecap="round" stroke-linejoin="round" stroke-width="4"></path><polygon points="-36.45905,476.9079 -42,484 -47.54095,476.9079" fill="#788896" stroke="#788896" stroke-width="2" stroke-linecap="round" stroke-linejoin="round"></polygon><g class="content"><g><g><g><g><g></g><text fill="#293845" hover-props="{}"><tspan x="-66.5068359375" y="425.5" font-family="DIN Next, system-ui, sans-serif" font-size="18" font-style="normal" font-weight="normal">owner</tspan></text></g></g></g></g></g></g></g></g></g></svg>